<svg id="tagPreco" xmlns="http://www.w3.org/2000/svg" viewBox="0 0 245 245"><title>tagpreco</title><g id="circuloExterno"><circle cx="122.5" cy="122.5" r="122.5" style="fill:#e50000"/></g><g id="contorno"><path d="M125,10h-4.26q-3.9.13-7.72.54l.31,3A113.43,113.43,0,0,1,125,13V10Zm-23.83,2.47c-1.5.32-3,.67-4.48,1h-.43l-.3.08h-.48l-.38.1h-.43l-.3.08h0l0,0H93.9l0,0h0l-.34.09h0l0,0h-.27l-.67.2h0l-1.61.48h0l0,0h-.09l0,0h0l-.59.18h0l0,0H90l0,0h0l-.38.12.92,2.85a112.35,112.35,0,0,1,11.29-3l-.62-2.94ZM78.38,19.84h0l0,0h0l0,0h0l0,0h0l-.4.18h-.08l0,0h0l0,0h0l0,0h0l-.31.14h0l0,0h0l0,0h-.13l0,0h0l0,0h0l-.28.13h-.08l0,0h0l0,0h0l0,0h0l0,0h0l0,0h0l-.23.11h-.09l0,0h0l0,0h0l0,0h0l0,0h0l0,0h0l-.24.11h-.12l0,0h0l0,0h0l0,0h0l0,0h0l0,0h0l0,0h0l-.15.07h0l0,0h-.36l-.19.09h-.21l0,0h0l0,0h0l0,0h0l-.23.11h-.28l0,0h0l-.23.12h0l0,0h-.32l-.19.09h0l0,0h0l0,0h0l0,0h0l0,0h0l0,0h-.21l-.14.08h0l0,0h0l0,0h0l0,0h0l0,0h0l0,0h0l0,0H72l-.14.06h0l0,0h0l0,0h0l0,0h0l0,0h0l0,0h-.24l0,0h0l0,0h0l0,0H71l0,0h0l0,0h-.09l0,0h-.14l0,0h-.21l0,0h0l0,0h0l-.08,0h-.14l0,0h0l0,0h-.18l0,0h0l0,0h0l-.08,0h0l0,0h0l0,0h0l0,0h0l0,0h-.09l0,0h0l0,0h-.05l0,0h0l-.08,0h0l0,0h0l0,0h0l0,0h0l0,0h0l0,0h0l0,0h0l0,0h0l0,0h0l-.2.12h0l0,0h0l0,0h0l0,0h0l0,0h0l0,0h0l0,0h0l0,0h0l-.32.18h0l0,0h0l0,0h0l0,0h0l0,0h0l-.17.09,1.5,2.6a111.78,111.78,0,0,1,10.41-5.29l-1.21-2.75Zm-20.76,12q-3.18,2.29-6.19,4.8h0l0,0h0l-.29.23h0l0,0h0l0,0h0l0,0h0l0,0h0l0,0h0l0,0h0l0,0h0l-.11.09h0l0,0v0h0l0,0h0v0h0l0,0h0v0h0v0h0l0,0h0l-.11.1h0l0,0h0l0,0h0l0,0h0l0,0h0l0,0h0l0,0h0l0,0h0c-.61.53-1.22,1.06-1.82,1.6l2,2.23a112.59,112.59,0,0,1,9.1-7.33L57.62,31.8Zm-17.85,16c-2.3,2.54-4.5,5.19-6.57,7.94h0l-.06.07h0l-.22.3h0l0,0h0l0,0h0l0,0h0l0,0h0l0,0h0l0,0h0l-.11.15h0l0,0h0l0,0h0v0l0,0h0l0,0h0l0,0h0l0,0h0l0,0h0l0,0h0l0,0h0l0,0h0l0,0h0v0l0,0v0h0v0h0l2.42,1.77A112.16,112.16,0,0,1,42,49.8l-2.23-2ZM25.61,67.11a114.06,114.06,0,0,0-5.5,10.66L22.85,79A111.82,111.82,0,0,1,28.2,68.62l-2.59-1.51ZM15.76,89,15.42,90h0v0h0v0h0v.27h0v0h0v0h0q-1.54,4.94-2.66,10l2.93.64a111.59,111.59,0,0,1,3.07-11.27L15.76,89Zm-5.07,23.41c-.06.54-.12,1.07-.17,1.61h0v.09h0v0h0v0h0v0h0v0h0v0h0v.08h0v0h0v0h0v0h0v0h0v0h0v.08h0v.08h0v.13h0V115h0v.08h0v0h0v0h0v0h0v0h0v0h0v0h0v0h0v0h0v0h0v0h0v0h0v.18h0v.36h0v.13h0v.22h0v.13h0v.22h0v0h0V117h0v.08h0v0h0v0h0v0h0v0h0v.08h0v0h0v0h0v0h0q-.22,3.36-.24,6.78h3a113.12,113.12,0,0,1,.67-11.66l-3-.33ZM13.54,136l-3,.29a112.57,112.57,0,0,0,1.79,11.86l2.94-.6A109.44,109.44,0,0,1,13.54,136Zm4.68,22.85-2.86.91c.44,1.41.91,2.8,1.41,4.19h0l0,0h0v0h0v0h0l0,0h0v0h0l0,0h0c0,.09.06.18.1.27h0v0h0l0,0h0v.08h0v.22h0v0h0l.09.24h0l0,0h0v0h0l0,0h0v0h0l0,0h0q1.07,2.84,2.28,5.61l2.75-1.2a110,110,0,0,1-4.11-10.94Zm9.34,21.38L25,181.74q.81,1.42,1.65,2.82h0l0,0h0l0,0h0l0,0h0c.07.11.14.22.2.33h0l0,0h0l0,0h0l0,0h0l0,0h0c.07.12.15.24.22.37h0l0,0h0l0,0h0l0,.08h0c.07.09.12.19.19.29h0l0,0h0l0,0h0l0,0h0l0,0h0l0,0h0l.16.26h0l0,0h0l0,0h0l0,0h0l0,0h0l0,0h0l0,0h0l0,0h0l.16.25h0l0,0h0v0h0l0,0h0l0,0h0l0,0h0l0,0h0l.14.21h0l0,0h0v0h0l0,0h0l0,0h0l0,0h0l0,0h0l0,0h0l0,0h0l.12.18h0l0,0h0l0,0h0l0,0h0l0,0h0v0h0l0,0h0v0h0l0,0h0l.09.13h0l0,0h0l0,0h0l0,0v0h0l0,0h0v0h0l0,0v0h0l0,0h0v0l0,0h0l0,.05h0v0h0v0l0,0v.06h0v.06l0,0V189h0v.06l0,0v0l0,0v0l0,0v0l0,0v0h0v0l0,0v.06l0,0v0h0l0,0v.06l0,0v0h0l0,0h0v0h0l0,0v0l0,0v0h0l0,0h0v0l0,0v0h0l0,0h0l0,0h0v0h0l.05.07h0l0,0h0l0,0h0l0,0v0l0,0h0l0,0h0l0,0h0v0h0l0,0h0l0,0h0l.11.15h0l0,0h0l0,0h0l0,0h0l0,0h0l0,0h0l0,0h0l0,0h0l0,0h0l.16.23h0l0,0h0l0,0h0l0,0h0l0,0h0l.38.54,2.44-1.75a111.51,111.51,0,0,1-6.29-9.84Zm13.58,19-2.25,2c.66.74,1.34,1.48,2,2.21h0l0,0h0l0,0h0l0,0h0c.1.1.2.2.29.31h0l0,0h0l0,0h0l0,0h0l0,0h0l.26.27h0q2.72,2.87,5.62,5.52l2-2.21a112.89,112.89,0,0,1-8.19-8.33ZM58.33,215l-1.78,2.41a113.76,113.76,0,0,0,10,6.63l1.53-2.58A112.52,112.52,0,0,1,58.33,215Zm20.09,11.87-1.25,2.73c1,.47,2.06.93,3.11,1.37h0l0,0h0l0,0h0l0,0h.1l0,0h0l0,0h.05l.14.06h.41l0,0h0l0,0h0l.26.11h0l0,0h0l0,0h0c2.19.89,4.4,1.71,6.65,2.47l1-2.85a108.92,108.92,0,0,1-10.86-4.3Zm22.11,7.44-.65,2.93h.45l.27.06h.73l.73.15h0l.18,0h.05l.82.16h0l.09,0h.28l.55.1h0l.09,0h.6l.27,0h1l.09,0h1.07l.12,0h.91l.34.05h.73l.35,0h.86l.22,0h1l.35-3a113.94,113.94,0,0,1-11.52-1.94Zm34.86,2.2c-3.43.32-6.93.48-10.39.48h-1.29l0,3h6.51l.28,0h.14l.32,0h.59l.28,0h1.05l.23,0h2.39l.2,0-.27-3ZM158.27,232A113.68,113.68,0,0,1,147,234.85l.58,2.94c.85-.16,1.7-.34,2.54-.53h.5l.23-.06h.69l.09,0h.73l.14,0H154l.09,0h.72l.23-.06h0l0,0h.37l0,0h.05l.49-.14h.05l.08,0h0l0,0h.05c1-.27,1.91-.55,2.86-.85l-.89-2.86Zm21.43-9.22a110.71,110.71,0,0,1-10.48,5.17l1.19,2.76a114.12,114.12,0,0,0,10.75-5.31l-1.46-2.62Zm19.05-13.47a112.16,112.16,0,0,1-9.18,7.23l1.74,2.45a116.34,116.34,0,0,0,9.42-7.42l-2-2.26Zm15.87-17.11a112.58,112.58,0,0,1-7.49,9l2.2,2,1-1.11h0l0,0h0l0,0h0l0,0h0l.12-.14h0l0,0h0l0,0h0l0,0h0l0,0v0l0,0h0l0,0v0h0l0,0v0h0v0l.1-.11h0l0,0h0l0,0h0l0,0h0l0,0h0l0,0h0l0,0h0c2.06-2.33,4-4.75,5.91-7.25l-2.4-1.8Zm12-20a110.66,110.66,0,0,1-5.47,10.32l2.57,1.54q1.42-2.37,2.73-4.8h0l0,0h0l0,0h0l0,0h0v0h0l0,0h0l0,0h0l.07-.12h0l0,0v0l0,0v0l0,0v-.22l0,0v-.08l.06-.13h0l0,0h0l0,0h0l0,0h0l0,0h0l0,0h0l0,0h0l0,0h0l0,0h0l0,0h0l.14-.27h0l0-.07h0l0,0h0q1.05-2,2-4.12l-2.72-1.26Zm7.57-22.07a114.18,114.18,0,0,1-3.2,11.23l2.83,1c.48-1.38.92-2.78,1.35-4.18h0v0h0v0h0l0,0h0v0h0v0h0l0,0h0v0h0v0h0l0,0h0v0h0l.07-.22h0v0h0v0h0v-.08h0v-.08h0v-.36h0l0-.11h0v0h0v0h0v-.12h0v-.12h0v-.08h0v0h0v0h0v0h0l.09-.33h0v0h0v0h0v0h0l0,0h0v0h0v0h0l0-.08h0c.43-1.55.82-3.11,1.18-4.69l-2.92-.67Zm2.8-23.16a110.28,110.28,0,0,1-.8,11.65l3,.37c.4-3.26.65-6.56.77-9.89h0v0h0v0h0v0h0v-.39h0v0h0v0h0v0h0v0h0v0h0v0h0v0h0v0h0c0-.39,0-.77,0-1.16l-3,0Zm.94-23.82-2.95.57a109.13,109.13,0,0,1,1.61,11.57l3-.26c-.27-3.14-.66-6.23-1.18-9.29h0v0h0v0h0v-.05h0v0h0l0-.09h0v-.09h0c0-.14-.05-.29-.08-.44h0v0h0v0h0v-.55h0v-.08h0v0h0v0h0v0h0v0h0c0-.22-.07-.43-.12-.64h0l0-.23ZM231,80.2l-2.77,1.17a109.87,109.87,0,0,1,4,11l2.87-.87c-.51-1.67-1-3.31-1.63-4.94h0l0-.08h0v0h0l0,0h0l-.18-.5h0v0h0l0,0h0v0h0l0,0h0v0h0l0,0h0L233,85.3h0v0h0l0,0h0v0h0v-.08h0v0h0v0h0v0h0l0,0h0v0h0l-.09-.24h0l0,0h0v0h0v0h0v0h0v0h0v0h0v0h0l0,0h0v0h0l0,0h0l-.09-.23h0v-.12h0v0h0v0h0v-.12h0v0h0v0h0v0h0v0h0l-.05-.11h0v0h0v0h0v0h0V83h0v-.22l0,0v-.32h0v-.25h0l0,0h0l0-.08h0v0h0v0h0v-.12h0v0h0l0,0v-.09h0v0h0l0,0h0l-.11-.26h0v0h0v0h0l0,0h0l0,0h0v0h0v0h0l0,0h0l0,0h0l-.18-.43h0l0-.08h0c0-.09-.08-.17-.11-.26Zm-11.6-21L216.89,61a109.38,109.38,0,0,1,6.18,9.92l2.63-1.46-.64-1.14h0l0,0h0l0,0h0l0,0h0v0h0l0,0h0l-.05-.08h0l0,0h0v0h0v0l0,0v-.14l0,0h0l0,0h0c-1.22-2.1-2.49-4.16-3.83-6.18h0l0,0h0l0,0h0l0,0h0l0,0h0l0,0h0l-.11-.18h0l0,0h0l0,0h0v0l0,0h0v0h0l0,0v-.06l0,0h0v0h0l0-.08h0l0,0v0l0,0h0v0h0l0,0h0v0l0,0h0l0,0h0l0,0h0l0,0h0l-.11-.15h0l0,0h0l0,0h0l0,0h0l0,0h0l0,0h0l0,0h0l0,0h0l-.46-.65ZM203.67,41.12l-2,2.19a113.09,113.09,0,0,1,8.1,8.43l2.26-2-.13-.16h0l0,0h0l0,0h0q-3.82-4.38-8.07-8.38h0l0,0h0ZM184.6,26.63,183,29.19a113.29,113.29,0,0,1,9.66,6.58l1.81-2.39h0l0,0h0l0,0h0l0,0h0l0,0h0l-.11-.09h0l0,0h0l0,0h0l0,0h0l0,0h-.05l0,0h0l0,0h0l0,0h-.05l0,0h0l-.08-.06h0l0,0h0l0,0h0l0,0h0l0,0h0l0,0h0l0,0h0l0,0h0l-.08-.06h0l0,0h-.05l0,0h0l0,0h0l0,0h-.05l0,0h0l0,0h0l-.2-.15h0l0,0h0l0,0h0l0,0h0l0,0h0l0,0h0l0,0h0l-.31-.22h0l0,0h0q-2.47-1.8-5.07-3.46h0l0,0h0l0,0h0l0,0h0l-.25-.16h0l0,0h0l0,0h-.09l0,0h0l0,0h-.06l0,0h0l0,0,0,0h0l0,0h0l0,0h0l0,0h0l0,0h0l0,0h0l0,0h0l0,0h0l-1.52-.94ZM162.93,16.4l-1,2.84a107.93,107.93,0,0,1,10.81,4.42L174,21c-.87-.41-1.75-.82-2.63-1.21h-.13l0,0h0l0,0h0l0,0h0l0,0h0l-.26-.11h0l0,0h0l0,0h-.18l0,0h-.18l-.09,0h0l0,0h0l0,0h-.39l0,0h0l-.09,0h-.49l0,0h0l-.15-.06h0l0,0h-.26l0,0h-.09l-.24-.1h-.09l0,0H168l0,0h0l-.28-.11h0l0,0h-.09l0,0h-.09l0,0h0l-.36-.14h0l0,0h0l0,0h-.09l0,0h0l-.41-.16h0l0,0h0l0,0h0l-.49-.18h0l0,0h0l-.57-.22h0l-2.11-.76Zm-23.32-5.48-.37,3A108.86,108.86,0,0,1,150.73,16l.69-2.92c-.89-.21-1.78-.41-2.67-.59h-1.62c-2.48-.49-5-.89-7.52-1.21ZM125,10v3l2.58,0,.07-3c-.67,0-1.35,0-2,0H125Z" transform="translate(-2.5 -2.5)" style="fill:#fff"/></g><text id="preco" transform="translate(36.5 137.79)" style="font-size:119.4323959350586px;fill:#fff;font-family:BebasNeue-Regular, Bebas Neue">$5.<tspan x="118" y="0" style="font-size:67.50569152832031px">49</tspan></text><text id="subtitulo" transform="translate(67.9 206.97)" style="font-size:76.91523742675781px;fill:#fff;font-family:BebasNeue-Regular, Bebas Neue">on<tspan x="63.61" y="0" style="letter-spacing:-0.08798748273311119em">l</tspan><tspan x="83.3" y="0">y</tspan></text></svg>